<?xml version="1.0" standalone="no"?>
<!DOCTYPE svg PUBLIC "-//W3C//DTD SVG 20010904//EN"
 "http://www.w3.org/TR/2001/REC-SVG-20010904/DTD/svg10.dtd">
<svg version="1.0" xmlns="http://www.w3.org/2000/svg"
 width="180.000000pt" height="180.000000pt" viewBox="0 0 180.000000 180.000000"
 preserveAspectRatio="xMidYMid meet">
<metadata>
Created by potrace 1.14, written by Peter Selinger 2001-2017
</metadata>
<g transform="translate(0.000000,180.000000) scale(0.100000,-0.100000)"
fill="#000000" stroke="none">
<path d="M225 1351 l-225 -452 65 -128 c36 -70 65 -133 65 -139 0 -6 3 -12 8
-14 5 -2 256 -488 306 -595 6 -13 14 -23 17 -23 7 0 59 104 59 119 0 5 3 11 8
13 9 4 382 752 382 767 0 7 -12 35 -27 64 -15 29 -27 54 -28 57 -1 3 -23 48
-50 100 -27 52 -56 111 -64 130 -8 19 -17 37 -21 40 -3 3 -61 115 -129 250
-68 135 -127 249 -132 254 -4 5 -109 -195 -234 -443z"/>
<path d="M667 1793 c-2 -5 85 -183 192 -398 l196 -390 120 0 c100 0 119 3 117
15 -5 23 -135 284 -145 291 -5 3 -9 10 -8 15 0 5 -52 114 -116 242 l-116 232
-118 0 c-65 0 -119 -3 -122 -7z"/>
<path d="M1163 1673 c36 -70 136 -273 225 -451 l160 -323 -219 -439 c-120
-241 -219 -444 -219 -449 0 -7 44 -11 125 -11 123 0 131 2 126 33 0 4 3 7 9 7
5 0 10 9 10 20 0 11 3 20 8 20 6 0 35 54 37 70 1 3 15 32 32 65 84 162 101
195 97 195 -2 0 7 18 21 40 14 22 25 46 25 55 0 8 5 15 10 15 6 0 10 9 10 19
0 11 3 21 8 23 6 2 103 192 107 208 0 3 15 33 33 67 l32 63 -127 257 c-71 142
-131 260 -135 261 -5 2 -8 8 -8 14 0 14 -103 222 -112 226 -5 2 -8 9 -8 16 0
6 -13 36 -28 66 l-29 55 -127 3 -126 3 63 -128z"/>
<path d="M1046 770 c-7 -8 -26 -43 -41 -77 -16 -35 -33 -63 -38 -63 -6 0 -8
-3 -4 -6 3 -4 -58 -133 -136 -288 -78 -154 -148 -293 -154 -309 l-13 -27 125
0 124 0 88 178 c48 97 91 179 95 180 5 2 8 9 8 15 0 16 142 300 155 309 6 4 6
8 2 8 -5 0 2 18 14 40 12 22 19 43 15 47 -4 4 -56 8 -117 8 -87 1 -113 -3
-123 -15z"/>
</g>
</svg>
